<svg xmlns="http://www.w3.org/2000/svg" class="svg-icon-lib">
    <symbol id="pencil" viewBox="0 0 16 16">
       <path fill="#000000" d="M6 10l2-1 7-7-1-1-7 7-1 2zM4.52 13.548c-0.494-1.043-1.026-1.574-2.069-2.069l1.548-4.262 2-1.217 6-6h-3l-6 6-3 10 10-3 6-6v-3l-6 6-1.217 2z"/> 
    </symbol>
    <symbol id="avatar" viewBox="0 0 16 16">
       <path fill="#000000" d="M9 11.041v-0.825c1.102-0.621 2-2.168 2-3.716 0-2.485 0-4.5-3-4.5s-3 2.015-3 4.5c0 1.548 0.898 3.095 2 3.716v0.825c-3.392 0.277-6 1.944-6 3.959h14c0-2.015-2.608-3.682-6-3.959z"/> 
    </symbol>
    <symbol id="userplus" viewBox="0 0 16 16">
       <path fill="#000000" d="M6 11.5c0-2.363 1.498-4.383 3.594-5.159 0.254-0.571 0.406-1.206 0.406-1.841 0-2.485 0-4.5-3-4.5s-3 2.015-3 4.5c0 1.548 0.898 3.095 2 3.716v0.825c-3.392 0.277-6 1.944-6 3.959h6.208c-0.135-0.477-0.208-0.98-0.208-1.5z"/> <path fill="#000000" d="M11.5 7c-2.485 0-4.5 2.015-4.5 4.5s2.015 4.5 4.5 4.5c2.485 0 4.5-2.015 4.5-4.5s-2.015-4.5-4.5-4.5zM14 12h-2v2h-1v-2h-2v-1h2v-2h1v2h2v1z"/> 
    </symbol>
    <symbol id="usercheck" viewBox="0 0 16 16">
       <path fill="#000000" d="M15 9.5l-4.5 4.5-1.5-1.5-1 1 2.5 2.5 5.5-5.5z"/> <path fill="#000000" d="M7 12h5v-1.799c-1.050-0.613-2.442-1.033-4-1.16v-0.825c1.102-0.621 2-2.168 2-3.716 0-2.485 0-4.5-3-4.5s-3 2.015-3 4.5c0 1.548 0.898 3.095 2 3.716v0.825c-3.392 0.277-6 1.944-6 3.959h7v-1z"/> 
    </symbol>
    <symbol id="quotesleft" viewBox="0 0 16 16">
       <path fill="#000000" d="M3.516 7c1.933 0 3.5 1.567 3.5 3.5s-1.567 3.5-3.5 3.5-3.5-1.567-3.5-3.5l-0.016-0.5c0-3.866 3.134-7 7-7v2c-1.336 0-2.591 0.52-3.536 1.464-0.182 0.182-0.348 0.375-0.497 0.578 0.179-0.028 0.362-0.043 0.548-0.043zM12.516 7c1.933 0 3.5 1.567 3.5 3.5s-1.567 3.5-3.5 3.5-3.5-1.567-3.5-3.5l-0.016-0.5c0-3.866 3.134-7 7-7v2c-1.336 0-2.591 0.52-3.536 1.464-0.182 0.182-0.348 0.375-0.497 0.578 0.179-0.028 0.362-0.043 0.549-0.043z"/> 
    </symbol>
    <symbol id="quotesright" viewBox="0 0 16 16">
       <path fill="#000000" d="M12.5 10c-1.933 0-3.5-1.567-3.5-3.5s1.567-3.5 3.5-3.5 3.5 1.567 3.5 3.5l0.016 0.5c0 3.866-3.134 7-7 7v-2c1.336 0 2.591-0.52 3.536-1.464 0.182-0.182 0.348-0.375 0.497-0.578-0.179 0.028-0.362 0.043-0.549 0.043zM3.5 10c-1.933 0-3.5-1.567-3.5-3.5s1.567-3.5 3.5-3.5 3.5 1.567 3.5 3.5l0.016 0.5c0 3.866-3.134 7-7 7v-2c1.336 0 2.591-0.52 3.536-1.464 0.182-0.182 0.348-0.375 0.497-0.578-0.179 0.028-0.362 0.043-0.549 0.043z"/> 
    </symbol>
    <symbol id="search" viewBox="0 0 16 16">
       <path fill="#000000" d="M15.504 13.616l-3.79-3.223c-0.392-0.353-0.811-0.514-1.149-0.499 0.895-1.048 1.435-2.407 1.435-3.893 0-3.314-2.686-6-6-6s-6 2.686-6 6 2.686 6 6 6c1.486 0 2.845-0.54 3.893-1.435-0.016 0.338 0.146 0.757 0.499 1.149l3.223 3.79c0.552 0.613 1.453 0.665 2.003 0.115s0.498-1.452-0.115-2.003zM6 10c-2.209 0-4-1.791-4-4s1.791-4 4-4 4 1.791 4 4-1.791 4-4 4z"/> 
    </symbol>
    <symbol id="key" viewBox="0 0 16 16">
       <path fill="#000000" d="M15.658 4.91l-1.58-1.58c-0.387-0.387-1.021-1.021-1.409-1.409l-1.58-1.58c-0.387-0.387-1.077-0.456-1.533-0.152l-4.319 2.88c-0.456 0.304-0.628 0.954-0.383 1.444l1.101 2.203c0.034 0.067 0.073 0.139 0.115 0.213l-5.571 5.571-0.5 3.5h3v-1h2v-2h2v-2h2v-1.112c0.1 0.060 0.196 0.113 0.284 0.157l2.203 1.101c0.49 0.245 1.14 0.072 1.444-0.383l2.88-4.319c0.304-0.456 0.236-1.146-0.152-1.533zM2.354 13.354l-0.707-0.707 4.868-4.868 0.707 0.707-4.868 4.868zM14.328 6.621l-0.707 0.707c-0.194 0.194-0.513 0.194-0.707 0l-4.243-4.243c-0.194-0.194-0.194-0.513 0-0.707l0.707-0.707c0.194-0.194 0.513-0.194 0.707 0l4.243 4.243c0.194 0.194 0.194 0.513 0 0.707z"/> 
    </symbol>
    <symbol id="wrench" viewBox="0 0 16 16">
       <path fill="#000000" d="M15.671 12.779l-7.196-6.168c0.335-0.63 0.525-1.348 0.525-2.111 0-2.485-2.015-4.5-4.5-4.5-0.455 0-0.893 0.068-1.307 0.193l2.6 2.6c0.389 0.389 0.389 1.025 0 1.414l-1.586 1.586c-0.389 0.389-1.025 0.389-1.414 0l-2.6-2.6c-0.125 0.414-0.193 0.852-0.193 1.307 0 2.485 2.015 4.5 4.5 4.5 0.763 0 1.482-0.19 2.111-0.525l6.168 7.196c0.358 0.418 0.969 0.441 1.358 0.052l1.586-1.586c0.389-0.389 0.365-1-0.052-1.358z"/> 
    </symbol>
    <symbol id="bug" viewBox="0 0 16 16">
       <path fill="#000000" d="M16 9v-1h-3.020c-0.092-1.136-0.497-2.172-1.12-3.004h2.53l1.095-4.379-0.97-0.243-0.905 3.621h-2.729c-0.014-0.011-0.028-0.021-0.042-0.032 0.105-0.305 0.162-0.632 0.162-0.972 0-1.653-1.343-2.992-3-2.992s-3 1.34-3 2.992c0 0.34 0.057 0.667 0.162 0.972-0.014 0.011-0.028 0.021-0.042 0.032h-2.729l-0.905-3.621-0.97 0.243 1.095 4.379h2.53c-0.623 0.832-1.028 1.868-1.12 3.004h-3.020v1h3.021c0.059 0.713 0.242 1.388 0.526 1.996h-1.937l-1.095 4.379 0.97 0.243 0.905-3.621h1.756c0.917 1.219 2.303 1.996 3.854 1.996s2.937-0.777 3.854-1.996h1.756l0.905 3.621 0.97-0.243-1.095-4.379h-1.937c0.283-0.608 0.466-1.283 0.526-1.996h3.021z"/> 
    </symbol>
    <symbol id="bin" viewBox="0 0 16 16">
       <path fill="#000000" d="M3 16h10l1-11h-12zM10 2v-2h-4v2h-5v3l1-1h12l1 1v-3h-5zM9 2h-2v-1h2v1z"/> 
    </symbol>
    <symbol id="tree" viewBox="0 0 16 16">
       <path fill="#000000" d="M15.25 12h-0.25v-3.25c0-0.965-0.785-1.75-1.75-1.75h-4.25v-2h0.25c0.412 0 0.75-0.338 0.75-0.75v-2.5c0-0.413-0.338-0.75-0.75-0.75h-2.5c-0.412 0-0.75 0.337-0.75 0.75v2.5c0 0.412 0.338 0.75 0.75 0.75h0.25v2h-4.25c-0.965 0-1.75 0.785-1.75 1.75v3.25h-0.25c-0.412 0-0.75 0.338-0.75 0.75v2.5c0 0.412 0.338 0.75 0.75 0.75h2.5c0.413 0 0.75-0.338 0.75-0.75v-2.5c0-0.412-0.337-0.75-0.75-0.75h-0.25v-3h4v3h-0.25c-0.412 0-0.75 0.338-0.75 0.75v2.5c0 0.412 0.338 0.75 0.75 0.75h2.5c0.412 0 0.75-0.338 0.75-0.75v-2.5c0-0.412-0.338-0.75-0.75-0.75h-0.25v-3h4v3h-0.25c-0.412 0-0.75 0.338-0.75 0.75v2.5c0 0.412 0.338 0.75 0.75 0.75h2.5c0.412 0 0.75-0.338 0.75-0.75v-2.5c0-0.412-0.338-0.75-0.75-0.75zM3 15h-2v-2h2v2zM9 15h-2v-2h2v2zM7 4v-2h2v2h-2zM15 15h-2v-2h2v2z"/> 
    </symbol>
    <symbol id="hmenu" viewBox="0 0 16 16">
       <path fill="#000000" d="M1 3h14v3h-14zM1 7h14v3h-14zM1 11h14v3h-14z"/> 
    </symbol>
    <symbol id="circleup" viewBox="0 0 16 16">
       <path fill="#000000" d="M0 8c0 4.418 3.582 8 8 8s8-3.582 8-8-3.582-8-8-8-8 3.582-8 8zM14.5 8c0 3.59-2.91 6.5-6.5 6.5s-6.5-2.91-6.5-6.5 2.91-6.5 6.5-6.5 6.5 2.91 6.5 6.5z"/> <path fill="#000000" d="M11.043 10.457l1.414-1.414-4.457-4.457-4.457 4.457 1.414 1.414 3.043-3.043z"/> 
    </symbol>
    <symbol id="circledown" viewBox="0 0 16 16">
       <path fill="#000000" d="M16 8c0-4.418-3.582-8-8-8s-8 3.582-8 8 3.582 8 8 8 8-3.582 8-8zM1.5 8c0-3.59 2.91-6.5 6.5-6.5s6.5 2.91 6.5 6.5-2.91 6.5-6.5 6.5-6.5-2.91-6.5-6.5z"/> <path fill="#000000" d="M4.957 5.543l-1.414 1.414 4.457 4.457 4.457-4.457-1.414-1.414-3.043 3.043z"/> 
    </symbol>
    <symbol id="googleplus" viewBox="0 0 16 16">
       <path fill="#000000" d="M8 0c-4.419 0-8 3.581-8 8s3.581 8 8 8 8-3.581 8-8-3.581-8-8-8zM6 12c-2.212 0-4-1.787-4-4s1.788-4 4-4c1.081 0 1.984 0.394 2.681 1.047l-1.088 1.044c-0.297-0.284-0.816-0.616-1.594-0.616-1.366 0-2.481 1.131-2.481 2.525s1.116 2.525 2.481 2.525c1.584 0 2.178-1.137 2.269-1.725h-2.269v-1.372h3.778c0.034 0.2 0.063 0.4 0.063 0.663 0 2.287-1.531 3.909-3.841 3.909zM13 8v1h-1v-1h-1v-1h1v-1h1v1h1v1h-1z"/> 
    </symbol>
    <symbol id="facebook" viewBox="0 0 16 16">
       <path fill="#000000" d="M14.5 0h-13c-0.825 0-1.5 0.675-1.5 1.5v13c0 0.825 0.675 1.5 1.5 1.5h6.5v-7h-2v-2h2v-1c0-1.653 1.347-3 3-3h2v2h-2c-0.55 0-1 0.45-1 1v1h3l-0.5 2h-2.5v7h4.5c0.825 0 1.5-0.675 1.5-1.5v-13c0-0.825-0.675-1.5-1.5-1.5z"/> 
    </symbol>
    <symbol id="instagram" viewBox="0 0 16 16">
       <path fill="#000000" d="M14.5 0h-13c-0.825 0-1.5 0.675-1.5 1.5v13c0 0.825 0.675 1.5 1.5 1.5h13c0.825 0 1.5-0.675 1.5-1.5v-13c0-0.825-0.675-1.5-1.5-1.5zM11 2.5c0-0.275 0.225-0.5 0.5-0.5h2c0.275 0 0.5 0.225 0.5 0.5v2c0 0.275-0.225 0.5-0.5 0.5h-2c-0.275 0-0.5-0.225-0.5-0.5v-2zM8 5c1.656 0 3 1.344 3 3s-1.344 3-3 3c-1.656 0-3-1.344-3-3s1.344-3 3-3zM14 13.5v0c0 0.275-0.225 0.5-0.5 0.5h-11c-0.275 0-0.5-0.225-0.5-0.5v0-6.5h1.1c-0.066 0.322-0.1 0.656-0.1 1 0 2.762 2.237 5 5 5s5-2.238 5-5c0-0.344-0.034-0.678-0.1-1h1.1v6.5z"/> 
    </symbol>
    <symbol id="twitter" viewBox="0 0 16 16">
       <path fill="#000000" d="M16 3.538c-0.588 0.263-1.222 0.438-1.884 0.516 0.678-0.406 1.197-1.050 1.444-1.816-0.634 0.375-1.338 0.65-2.084 0.797-0.6-0.638-1.453-1.034-2.397-1.034-1.813 0-3.281 1.469-3.281 3.281 0 0.256 0.028 0.506 0.084 0.747-2.728-0.138-5.147-1.444-6.766-3.431-0.281 0.484-0.444 1.050-0.444 1.65 0 1.138 0.578 2.144 1.459 2.731-0.538-0.016-1.044-0.166-1.488-0.409 0 0.013 0 0.028 0 0.041 0 1.591 1.131 2.919 2.634 3.219-0.275 0.075-0.566 0.116-0.866 0.116-0.212 0-0.416-0.022-0.619-0.059 0.419 1.303 1.631 2.253 3.066 2.281-1.125 0.881-2.538 1.406-4.078 1.406-0.266 0-0.525-0.016-0.784-0.047 1.456 0.934 3.181 1.475 5.034 1.475 6.037 0 9.341-5.003 9.341-9.341 0-0.144-0.003-0.284-0.009-0.425 0.641-0.459 1.197-1.038 1.637-1.697z"/> 
    </symbol>
    <symbol id="youtube" viewBox="0 0 40 16">
       <path fill="#000000" d="M5.375 2.647c0.003-0.014 0.005-0.023 0.006-0.028l0.016-0.118-0.74-0.004c-0.668-0.004-0.873 0-0.891 0.017-0.009 0.008-0.24 0.885-0.651 2.473-0.196 0.758-0.361 1.363-0.367 1.345s-0.24-0.883-0.522-1.922c-0.281-1.039-0.517-1.894-0.524-1.901-0.010-0.010-0.906-0.014-1.632-0.008-0.105 0.001-0.164-0.205 0.938 3.299 0.152 0.485 0.381 1.172 0.507 1.526 0.146 0.408 0.25 0.724 0.321 0.987 0.126 0.501 0.13 0.815 0.103 1.182-0.032 0.423-0.036 3.413-0.005 3.463 0.024 0.038 1.425 0.056 1.558 0.020 0.021-0.006 0.035-0.026 0.045-0.139 0.033-0.097 0.036-0.484 0.036-2.090v-2.051l0.090-0.283c0.059-0.185 0.206-0.672 0.328-1.082s0.269-0.9 0.327-1.090c0.529-1.724 1.033-3.419 1.047-3.516l0.011-0.079z"/> <path fill="#000000" d="M13.221 5.135l-0 0.107-0.017 0-0.009 2.953-0.009 2.863-0.229 0.233c-0.257 0.261-0.462 0.361-0.648 0.314-0.203-0.051-0.197 0.028-0.214-3.356l-0.016-3.115h-1.474v0.107h-0.017v3.38c0 3.621-0 3.619 0.184 3.982 0.146 0.29 0.36 0.431 0.725 0.479h0c0.481 0.064 1-0.154 1.481-0.622l0.209-0.203v0.351c0 0.303 0.009 0.353 0.064 0.368 0.090 0.025 1.206 0.027 1.326 0.002l0.1-0.021v-0.104l0.017-0.003v-7.736l-1.472 0.020z"/> <path fill="#000000" d="M9.483 6.661c-0.14-0.599-0.401-1.002-0.832-1.28-0.676-0.437-1.449-0.484-2.165-0.13-0.522 0.258-0.859 0.686-1.032 1.314-0.021 0.075-0.036 0.138-0.047 0.231-0.044 0.222-0.049 0.552-0.061 2.093-0.018 2.374 0.010 2.656 0.307 3.195 0.292 0.529 0.897 0.917 1.556 0.997 0.198 0.024 0.6-0.013 0.832-0.078 0.525-0.146 1.029-0.561 1.252-1.032 0.096-0.204 0.154-0.345 0.189-0.604 0.065-0.353 0.070-0.925 0.070-2.381-0-1.857-0.006-2.060-0.068-2.326zM7.802 11.5c-0.124 0.094-0.34 0.135-0.515 0.098-0.135-0.029-0.318-0.241-0.374-0.434-0.070-0.241-0.075-3.594-0.015-4.251 0.1-0.329 0.378-0.501 0.682-0.419 0.237 0.064 0.358 0.212 0.427 0.523 0.051 0.231 0.057 0.518 0.046 2.207-0.007 1.12-0.011 1.668-0.048 1.962-0.037 0.185-0.099 0.235-0.203 0.315z"/> <path fill="#000000" d="M35.944 8.346h0.712l-0.011-0.645c-0.011-0.592-0.020-0.659-0.099-0.82-0.125-0.253-0.309-0.366-0.601-0.366-0.351 0-0.573 0.17-0.678 0.518-0.045 0.148-0.092 1.167-0.058 1.255 0.019 0.049 0.121 0.058 0.735 0.058z"/> <path fill="#000000" d="M31.184 6.879c-0.095-0.191-0.272-0.286-0.477-0.278-0.16 0.006-0.337 0.073-0.508 0.203l-0.127 0.097v4.634l0.127 0.097c0.288 0.22 0.604 0.266 0.822 0.12 0.086-0.058 0.142-0.137 0.186-0.263 0.057-0.164 0.062-0.375 0.055-2.325-0.008-2.032-0.012-2.152-0.078-2.285z"/> <path fill="#000000" d="M40.014 4.791c-0.142-1.701-0.255-2.253-0.605-2.962-0.465-0.939-1.136-1.434-2.092-1.543-0.739-0.084-3.521-0.203-6.094-0.26-4.456-0.099-11.782 0.092-12.718 0.331-0.432 0.111-0.757 0.299-1.094 0.634-0.591 0.588-0.944 1.432-1.085 2.6-0.323 2.666-0.33 5.886-0.019 8.649 0.134 1.188 0.41 1.96 0.928 2.596 0.323 0.397 0.881 0.734 1.379 0.835 0.35 0.071 2.1 0.169 4.65 0.26 0.38 0.014 1.385 0.037 2.235 0.052 1.77 0.031 5.025 0.013 6.886-0.039 1.252-0.035 3.534-0.128 3.961-0.161 0.12-0.009 0.398-0.027 0.618-0.039 0.739-0.042 1.209-0.196 1.65-0.543 0.571-0.449 1.013-1.278 1.2-2.251 0.177-0.92 0.295-2.559 0.319-4.42 0.020-1.555-0.007-2.393-0.119-3.741zM22.27 4.175l-0.828 0.010-0.036 8.83-0.718 0.009c-0.555 0.008-0.724-0.001-0.737-0.036-0.010-0.025-0.021-2.016-0.026-4.424l-0.009-4.379-1.617-0.020v-1.38l4.779 0.019 0.020 1.36-0.828 0.010zM27.347 9.236v3.797h-1.308v-0.4c0-0.301-0.011-0.4-0.047-0.4-0.026 0-0.144 0.099-0.263 0.22-0.259 0.263-0.565 0.474-0.827 0.572-0.542 0.203-1.056 0.084-1.275-0.293-0.201-0.345-0.204-0.423-0.204-4.005v-3.29h1.307l0.010 3.098c0.010 3.044 0.011 3.1 0.084 3.224 0.097 0.164 0.244 0.209 0.478 0.144 0.138-0.038 0.232-0.105 0.455-0.327l0.282-0.28v-5.859h1.308v3.797zM32.449 12.491c-0.115 0.257-0.372 0.508-0.583 0.57-0.549 0.162-0.99 0.030-1.499-0.449-0.158-0.149-0.305-0.269-0.327-0.269-0.027 0-0.041 0.116-0.041 0.345v0.345h-1.308v-10.248h1.308v1.672c0 0.919 0.012 1.672 0.027 1.672s0.153-0.122 0.307-0.27c0.354-0.341 0.649-0.491 1.024-0.519 0.669-0.051 1.068 0.294 1.25 1.080 0.057 0.245 0.062 0.525 0.062 2.798-0 2.768-0 2.78-0.221 3.273zM37.984 10.971c-0.012 0.285-0.046 0.612-0.077 0.727-0.182 0.674-0.666 1.152-1.366 1.348-0.942 0.264-1.98-0.168-2.394-0.997-0.232-0.465-0.241-0.558-0.241-2.831 0-1.853 0.007-2.081 0.066-2.334 0.168-0.715 0.584-1.178 1.289-1.435 0.204-0.074 0.417-0.113 0.63-0.117 0.761-0.016 1.515 0.393 1.832 1.059 0.213 0.449 0.24 0.642 0.261 1.908l0.019 1.136-2.789 0.019-0.010 0.763c-0.015 1.077 0.058 1.408 0.349 1.603 0.244 0.165 0.62 0.152 0.824-0.027 0.192-0.168 0.246-0.349 0.265-0.877l0.017-0.463h1.347l-0.022 0.518z"/> 
    </symbol>
    <symbol id="reddit" viewBox="0 0 16 16">
       <path fill="#000000" d="M4 10c0-0.552 0.448-1 1-1s1 0.448 1 1c0 0.552-0.448 1-1 1s-1-0.448-1-1zM10 10c0-0.552 0.448-1 1-1s1 0.448 1 1c0 0.552-0.448 1-1 1s-1-0.448-1-1zM10.049 12.137c0.258-0.203 0.631-0.159 0.834 0.099s0.159 0.631-0.099 0.834c-0.717 0.565-1.81 0.93-2.783 0.93s-2.066-0.365-2.784-0.93c-0.258-0.203-0.302-0.576-0.099-0.834s0.576-0.302 0.834-0.099c0.413 0.325 1.23 0.675 2.049 0.675s1.636-0.35 2.049-0.675zM16 8c0-1.105-0.895-2-2-2-0.752 0-1.406 0.415-1.748 1.028-1.028-0.562-2.28-0.926-3.645-1.010l1.193-2.68 2.284 0.659c0.206 0.583 0.761 1.002 1.415 1.002 0.828 0 1.5-0.672 1.5-1.5s-0.672-1.5-1.5-1.5c-0.571 0-1.068 0.319-1.321 0.789l-2.545-0.735c-0.285-0.082-0.587 0.058-0.707 0.329l-1.621 3.641c-1.33 0.094-2.551 0.453-3.557 1.004-0.342-0.613-0.996-1.028-1.748-1.028-1.105 0-2 0.895-2 2 0 0.817 0.491 1.52 1.193 1.83-0.126 0.375-0.193 0.767-0.193 1.17 0 2.761 3.134 5 7 5s7-2.239 7-5c0-0.403-0.067-0.795-0.193-1.17 0.703-0.31 1.193-1.013 1.193-1.83zM13.5 2.938c0.311 0 0.563 0.252 0.563 0.563s-0.252 0.563-0.563 0.563-0.563-0.252-0.563-0.563 0.252-0.563 0.563-0.563zM1 8c0-0.551 0.449-1 1-1 0.399 0 0.743 0.234 0.904 0.573-0.523 0.396-0.956 0.854-1.276 1.355-0.368-0.148-0.628-0.508-0.628-0.928zM8 14.813c-3.21 0-5.813-1.707-5.813-3.813s2.602-3.813 5.813-3.813c3.21 0 5.813 1.707 5.813 3.813s-2.602 3.813-5.813 3.813zM14.372 8.928c-0.32-0.502-0.753-0.959-1.276-1.355 0.161-0.338 0.505-0.573 0.904-0.573 0.551 0 1 0.449 1 1 0 0.42-0.26 0.78-0.628 0.928z"/> 
    </symbol>
    <symbol id="linkedin" viewBox="0 0 16 16">
       <path fill="#000000" d="M6 6h2.767v1.418h0.040c0.385-0.691 1.327-1.418 2.732-1.418 2.921 0 3.461 1.818 3.461 4.183v4.817h-2.885v-4.27c0-1.018-0.021-2.329-1.5-2.329-1.502 0-1.732 1.109-1.732 2.255v4.344h-2.883v-9z"/> <path fill="#000000" d="M1 6h3v9h-3v-9z"/> <path fill="#000000" d="M4 3.5c0 0.828-0.672 1.5-1.5 1.5s-1.5-0.672-1.5-1.5c0-0.828 0.672-1.5 1.5-1.5s1.5 0.672 1.5 1.5z"/> 
    </symbol>
    <symbol id="pinterest" viewBox="0 0 16 16">
       <path fill="#000000" d="M8 0c-4.412 0-8 3.587-8 8s3.587 8 8 8 8-3.588 8-8-3.588-8-8-8zM8 14.931c-0.716 0-1.403-0.109-2.053-0.309 0.281-0.459 0.706-1.216 0.862-1.816 0.084-0.325 0.431-1.647 0.431-1.647 0.225 0.431 0.888 0.797 1.587 0.797 2.091 0 3.597-1.922 3.597-4.313 0-2.291-1.869-4.003-4.272-4.003-2.991 0-4.578 2.009-4.578 4.194 0 1.016 0.541 2.281 1.406 2.684 0.131 0.063 0.2 0.034 0.231-0.094 0.022-0.097 0.141-0.566 0.194-0.787 0.016-0.069 0.009-0.131-0.047-0.2-0.287-0.347-0.516-0.988-0.516-1.581 0-1.528 1.156-3.009 3.128-3.009 1.703 0 2.894 1.159 2.894 2.819 0 1.875-0.947 3.175-2.178 3.175-0.681 0-1.191-0.563-1.025-1.253 0.197-0.825 0.575-1.713 0.575-2.306 0-0.531-0.284-0.975-0.878-0.975-0.697 0-1.253 0.719-1.253 1.684 0 0.612 0.206 1.028 0.206 1.028s-0.688 2.903-0.813 3.444c-0.141 0.6-0.084 1.441-0.025 1.988-2.578-1.006-4.406-3.512-4.406-6.45 0-3.828 3.103-6.931 6.931-6.931s6.931 3.103 6.931 6.931c0 3.828-3.103 6.931-6.931 6.931z"/> 
    </symbol></svg>