<?xml version="1.0" encoding="UTF-8" standalone="no"?>
<svg width="16px" height="19px" viewBox="0 0 16 19" version="1.1" xmlns="http://www.w3.org/2000/svg" xmlns:xlink="http://www.w3.org/1999/xlink">
    <!-- Generator: Sketch 39.1 (31720) - http://www.bohemiancoding.com/sketch -->
    <title>help</title>
    <desc>Created with Sketch.</desc>
    <defs></defs>
    <g id="Admin-pages" stroke="none" stroke-width="1" fill="none" fill-rule="evenodd">
        <g id="admin" transform="translate(-364.000000, -239.000000)" fill="#0080AD">
            <g id="help" transform="translate(356.000000, 228.000000)">
                <path d="M22.2222222,11 L9.77777778,11 C8.79555556,11 8,11.7955556 8,12.7777778 L8,25.2222222 C8,26.2044444 8.79555556,27 9.77777778,27 L13.3333333,27 L16,29.6666667 L18.6666667,27 L22.2222222,27 C23.2044444,27 24,26.2044444 24,25.2222222 L24,12.7777778 C24,11.7955556 23.2044444,11 22.2222222,11 L22.2222222,11 Z M16.8888889,25.2222222 L15.1111111,25.2222222 L15.1111111,23.4444444 L16.8888889,23.4444444 L16.8888889,25.2222222 L16.8888889,25.2222222 Z M18.7244444,18.3377778 L17.9288889,19.1555556 C17.2888889,19.7955556 16.8888889,20.3333333 16.8888889,21.6666667 L15.1111111,21.6666667 L15.1111111,21.2222222 C15.1111111,20.24 15.5111111,19.3511111 16.1511111,18.7066667 L17.2577778,17.5866667 C17.5777778,17.2666667 17.7777778,16.8222222 17.7777778,16.3333333 C17.7777778,15.3511111 16.9822222,14.5555556 16,14.5555556 C15.0177778,14.5555556 14.2222222,15.3511111 14.2222222,16.3333333 L12.4444444,16.3333333 C12.4444444,14.3688889 14.0355556,12.7777778 16,12.7777778 C17.9644444,12.7777778 19.5555556,14.3688889 19.5555556,16.3333333 C19.5555556,17.1155556 19.24,17.8222222 18.7244444,18.3377778 L18.7244444,18.3377778 Z"></path>
            </g>
        </g>
    </g>
</svg>